<mxfile host="app.diagrams.net" modified="2021-05-04T13:32:32.588Z" agent="5.0 (Windows NT 10.0; Win64; x64) AppleWebKit/537.36 (KHTML, like Gecko) Chrome/90.0.4430.93 Safari/537.36" etag="M8k9ormGJkxVZr1TVngQ" version="14.6.9" type="github">
  <diagram id="B9hPIiYI8d9pon26M-we" name="Page-1">
    <mxGraphModel dx="638" dy="718" grid="1" gridSize="10" guides="1" tooltips="1" connect="1" arrows="1" fold="1" page="1" pageScale="1" pageWidth="827" pageHeight="1169" math="0" shadow="0">
      <root>
        <mxCell id="0" />
        <mxCell id="1" parent="0" />
        <mxCell id="iTO87OTuhyLdSeMKUdOk-21" style="edgeStyle=orthogonalEdgeStyle;rounded=0;orthogonalLoop=1;jettySize=auto;html=1;exitX=0;exitY=0.5;exitDx=0;exitDy=0;entryX=0.5;entryY=1;entryDx=0;entryDy=0;" edge="1" parent="1" source="iTO87OTuhyLdSeMKUdOk-1" target="iTO87OTuhyLdSeMKUdOk-20">
          <mxGeometry relative="1" as="geometry" />
        </mxCell>
        <mxCell id="iTO87OTuhyLdSeMKUdOk-1" value="Data Viz&lt;br&gt;- C. map" style="ellipse;whiteSpace=wrap;html=1;aspect=fixed;" vertex="1" parent="1">
          <mxGeometry x="200" y="180" width="80" height="80" as="geometry" />
        </mxCell>
        <mxCell id="iTO87OTuhyLdSeMKUdOk-13" style="edgeStyle=orthogonalEdgeStyle;rounded=0;orthogonalLoop=1;jettySize=auto;html=1;exitX=0;exitY=0.5;exitDx=0;exitDy=0;entryX=0.5;entryY=0;entryDx=0;entryDy=0;" edge="1" parent="1" source="iTO87OTuhyLdSeMKUdOk-2" target="iTO87OTuhyLdSeMKUdOk-1">
          <mxGeometry relative="1" as="geometry" />
        </mxCell>
        <mxCell id="iTO87OTuhyLdSeMKUdOk-15" style="edgeStyle=orthogonalEdgeStyle;rounded=0;orthogonalLoop=1;jettySize=auto;html=1;exitX=0;exitY=0.5;exitDx=0;exitDy=0;entryX=1;entryY=0;entryDx=0;entryDy=0;" edge="1" parent="1" source="iTO87OTuhyLdSeMKUdOk-2" target="iTO87OTuhyLdSeMKUdOk-3">
          <mxGeometry relative="1" as="geometry">
            <Array as="points">
              <mxPoint x="320" y="205" />
              <mxPoint x="320" y="395" />
            </Array>
          </mxGeometry>
        </mxCell>
        <mxCell id="iTO87OTuhyLdSeMKUdOk-16" value="Measurements" style="edgeLabel;html=1;align=center;verticalAlign=middle;resizable=0;points=[];" vertex="1" connectable="0" parent="iTO87OTuhyLdSeMKUdOk-15">
          <mxGeometry x="-0.7154" relative="1" as="geometry">
            <mxPoint x="-18" as="offset" />
          </mxGeometry>
        </mxCell>
        <mxCell id="iTO87OTuhyLdSeMKUdOk-2" value="Sensors&lt;br&gt;- lookup table (static gradient field)" style="ellipse;whiteSpace=wrap;html=1;aspect=fixed;" vertex="1" parent="1">
          <mxGeometry x="450" y="140" width="130" height="130" as="geometry" />
        </mxCell>
        <mxCell id="iTO87OTuhyLdSeMKUdOk-17" style="edgeStyle=orthogonalEdgeStyle;rounded=0;orthogonalLoop=1;jettySize=auto;html=1;exitX=0.5;exitY=1;exitDx=0;exitDy=0;entryX=0;entryY=0.5;entryDx=0;entryDy=0;" edge="1" parent="1" source="iTO87OTuhyLdSeMKUdOk-3" target="iTO87OTuhyLdSeMKUdOk-4">
          <mxGeometry relative="1" as="geometry">
            <Array as="points">
              <mxPoint x="240" y="495" />
            </Array>
          </mxGeometry>
        </mxCell>
        <mxCell id="iTO87OTuhyLdSeMKUdOk-18" value="Waypoints" style="edgeLabel;html=1;align=center;verticalAlign=middle;resizable=0;points=[];" vertex="1" connectable="0" parent="iTO87OTuhyLdSeMKUdOk-17">
          <mxGeometry x="-0.0559" y="-2" relative="1" as="geometry">
            <mxPoint as="offset" />
          </mxGeometry>
        </mxCell>
        <mxCell id="iTO87OTuhyLdSeMKUdOk-3" value="Path planning&lt;br&gt;- state machine" style="ellipse;whiteSpace=wrap;html=1;aspect=fixed;" vertex="1" parent="1">
          <mxGeometry x="190" y="380" width="100" height="100" as="geometry" />
        </mxCell>
        <mxCell id="iTO87OTuhyLdSeMKUdOk-7" style="edgeStyle=orthogonalEdgeStyle;rounded=0;orthogonalLoop=1;jettySize=auto;html=1;exitX=1;exitY=0.5;exitDx=0;exitDy=0;entryX=0.5;entryY=1;entryDx=0;entryDy=0;" edge="1" parent="1" source="iTO87OTuhyLdSeMKUdOk-4" target="iTO87OTuhyLdSeMKUdOk-5">
          <mxGeometry relative="1" as="geometry" />
        </mxCell>
        <mxCell id="iTO87OTuhyLdSeMKUdOk-8" value="Direction/ thruster/forces" style="edgeLabel;html=1;align=center;verticalAlign=middle;resizable=0;points=[];" vertex="1" connectable="0" parent="iTO87OTuhyLdSeMKUdOk-7">
          <mxGeometry x="-0.176" y="-4" relative="1" as="geometry">
            <mxPoint as="offset" />
          </mxGeometry>
        </mxCell>
        <mxCell id="iTO87OTuhyLdSeMKUdOk-4" value="Guidence&lt;br&gt;- LOS/ILOS" style="ellipse;whiteSpace=wrap;html=1;aspect=fixed;" vertex="1" parent="1">
          <mxGeometry x="380" y="440" width="110" height="110" as="geometry" />
        </mxCell>
        <mxCell id="iTO87OTuhyLdSeMKUdOk-9" style="edgeStyle=orthogonalEdgeStyle;rounded=0;orthogonalLoop=1;jettySize=auto;html=1;exitX=1;exitY=0.5;exitDx=0;exitDy=0;entryX=0.5;entryY=1;entryDx=0;entryDy=0;" edge="1" parent="1" source="iTO87OTuhyLdSeMKUdOk-5" target="iTO87OTuhyLdSeMKUdOk-6">
          <mxGeometry relative="1" as="geometry" />
        </mxCell>
        <mxCell id="iTO87OTuhyLdSeMKUdOk-5" value="Control" style="whiteSpace=wrap;html=1;aspect=fixed;" vertex="1" parent="1">
          <mxGeometry x="610" y="390" width="80" height="80" as="geometry" />
        </mxCell>
        <mxCell id="iTO87OTuhyLdSeMKUdOk-10" style="edgeStyle=orthogonalEdgeStyle;rounded=0;orthogonalLoop=1;jettySize=auto;html=1;exitX=0.5;exitY=0;exitDx=0;exitDy=0;entryX=1;entryY=0.5;entryDx=0;entryDy=0;" edge="1" parent="1" source="iTO87OTuhyLdSeMKUdOk-6" target="iTO87OTuhyLdSeMKUdOk-2">
          <mxGeometry relative="1" as="geometry" />
        </mxCell>
        <mxCell id="iTO87OTuhyLdSeMKUdOk-11" style="edgeStyle=orthogonalEdgeStyle;rounded=0;orthogonalLoop=1;jettySize=auto;html=1;exitX=0.5;exitY=0;exitDx=0;exitDy=0;entryX=0.5;entryY=1;entryDx=0;entryDy=0;" edge="1" parent="1" source="iTO87OTuhyLdSeMKUdOk-6" target="iTO87OTuhyLdSeMKUdOk-1">
          <mxGeometry relative="1" as="geometry">
            <Array as="points">
              <mxPoint x="720" y="260" />
              <mxPoint x="600" y="260" />
              <mxPoint x="600" y="290" />
              <mxPoint x="240" y="290" />
            </Array>
          </mxGeometry>
        </mxCell>
        <mxCell id="iTO87OTuhyLdSeMKUdOk-12" style="edgeStyle=orthogonalEdgeStyle;rounded=0;orthogonalLoop=1;jettySize=auto;html=1;exitX=0.5;exitY=0;exitDx=0;exitDy=0;entryX=0.5;entryY=0;entryDx=0;entryDy=0;" edge="1" parent="1" source="iTO87OTuhyLdSeMKUdOk-6" target="iTO87OTuhyLdSeMKUdOk-3">
          <mxGeometry relative="1" as="geometry">
            <Array as="points">
              <mxPoint x="720" y="260" />
              <mxPoint x="600" y="260" />
              <mxPoint x="600" y="290" />
              <mxPoint x="240" y="290" />
            </Array>
          </mxGeometry>
        </mxCell>
        <mxCell id="iTO87OTuhyLdSeMKUdOk-19" value="Position" style="edgeLabel;html=1;align=center;verticalAlign=middle;resizable=0;points=[];" vertex="1" connectable="0" parent="iTO87OTuhyLdSeMKUdOk-12">
          <mxGeometry x="-0.1097" y="2" relative="1" as="geometry">
            <mxPoint as="offset" />
          </mxGeometry>
        </mxCell>
        <mxCell id="iTO87OTuhyLdSeMKUdOk-6" value="Position est" style="whiteSpace=wrap;html=1;aspect=fixed;" vertex="1" parent="1">
          <mxGeometry x="680" y="280" width="80" height="80" as="geometry" />
        </mxCell>
        <mxCell id="iTO87OTuhyLdSeMKUdOk-20" value="Out" style="whiteSpace=wrap;html=1;aspect=fixed;" vertex="1" parent="1">
          <mxGeometry x="90" y="70" width="80" height="80" as="geometry" />
        </mxCell>
        <mxCell id="iTO87OTuhyLdSeMKUdOk-22" value="1/2 day" style="text;html=1;align=center;verticalAlign=middle;resizable=0;points=[];autosize=1;strokeColor=none;" vertex="1" parent="1">
          <mxGeometry x="170" y="170" width="50" height="20" as="geometry" />
        </mxCell>
        <mxCell id="iTO87OTuhyLdSeMKUdOk-23" value="1 day" style="text;html=1;align=center;verticalAlign=middle;resizable=0;points=[];autosize=1;strokeColor=none;" vertex="1" parent="1">
          <mxGeometry x="160" y="370" width="50" height="20" as="geometry" />
        </mxCell>
        <mxCell id="iTO87OTuhyLdSeMKUdOk-24" value="1/2 day" style="text;html=1;align=center;verticalAlign=middle;resizable=0;points=[];autosize=1;strokeColor=none;" vertex="1" parent="1">
          <mxGeometry x="490" y="120" width="50" height="20" as="geometry" />
        </mxCell>
        <mxCell id="iTO87OTuhyLdSeMKUdOk-25" value="1 day" style="text;html=1;align=center;verticalAlign=middle;resizable=0;points=[];autosize=1;strokeColor=none;" vertex="1" parent="1">
          <mxGeometry x="410" y="420" width="50" height="20" as="geometry" />
        </mxCell>
      </root>
    </mxGraphModel>
  </diagram>
</mxfile>
